<?xml version="1.0" encoding="utf-8"?><svg viewBox="0 0 178 161" xmlns="http://www.w3.org/2000/svg" xmlns:xlink="http://www.w3.org/1999/xlink"><style>:root>svg{display:none}:root>svg:target{display:block}</style><svg fill="none" viewBox="0 0 8 101" id="arrow" xmlns="http://www.w3.org/2000/svg"><path d="M3.646 100.354a.5.5 0 00.708 0l3.182-3.182a.5.5 0 10-.708-.707L4 99.293l-2.828-2.829a.5.5 0 10-.708.708l3.182 3.182zM3.5 0v100h1V0h-1z" fill="#000"/></svg><svg fill="none" viewBox="0 0 50 50" id="arrow-left" xmlns="http://www.w3.org/2000/svg"><path d="M35.352 10.66V6.884a.39.39 0 00-.63-.308L12.71 23.77a1.556 1.556 0 000 2.456l22.012 17.192c.258.2.63.02.63-.308v-3.774a.79.79 0 00-.298-.615L17.476 25l17.578-13.727a.79.79 0 00.298-.615z" fill="#000"/></svg><svg fill="none" viewBox="0 0 50 50" id="arrow-right" xmlns="http://www.w3.org/2000/svg"><path d="M37.388 23.77L15.376 6.576a.39.39 0 00-.63.308v3.774c0 .24.112.469.298.615L32.622 25 15.044 38.725a.775.775 0 00-.298.616v3.774a.39.39 0 00.63.308L37.388 26.23a1.56 1.56 0 000-2.46z" fill="#000"/></svg><svg fill="none" viewBox="0 0 122 110" id="card-1" xmlns="http://www.w3.org/2000/svg"><g clip-path="url(#dclip0)"><path d="M20.38 27.78c2.671 0 5.283-.796 7.504-2.287a13.557 13.557 0 004.974-6.09 13.629 13.629 0 00.769-7.84 13.589 13.589 0 00-3.697-6.948A13.487 13.487 0 0023.015.9a13.448 13.448 0 00-7.804.772A13.52 13.52 0 009.149 6.67a13.615 13.615 0 00-2.276 7.539c0 3.599 1.423 7.05 3.956 9.595a13.475 13.475 0 009.55 3.975zm0 37.334a9.39 9.39 0 012.878-6.785l15.223-14.435c.348-.328.796-.49 1.184-.757a13.54 13.54 0 00-4.954-6.222 13.443 13.443 0 00-7.578-2.35H13.626c-3.582 0-7.017 1.43-9.55 3.974A13.602 13.602 0 00.12 48.135V68.49c0 1.8.711 3.525 1.978 4.798a6.738 6.738 0 004.775 1.987v27.14c0 1.799.712 3.525 1.978 4.798a6.739 6.739 0 004.775 1.987h13.507a6.739 6.739 0 004.776-1.987 6.803 6.803 0 001.978-4.798V81.977L23.258 71.9a9.347 9.347 0 01-2.133-3.095 9.384 9.384 0 01-.745-3.69zm81.04-37.334a13.46 13.46 0 007.504-2.287 13.55 13.55 0 004.975-6.09 13.633 13.633 0 00.769-7.84 13.589 13.589 0 00-3.697-6.948A13.485 13.485 0 00104.055.9a13.447 13.447 0 00-7.803.772A13.52 13.52 0 0090.19 6.67a13.615 13.615 0 00-2.276 7.539c0 3.599 1.423 7.05 3.956 9.595a13.475 13.475 0 009.55 3.975zm6.754 6.785H94.667c-2.703.002-5.343.82-7.578 2.349a13.54 13.54 0 00-4.954 6.221c.389.27.844.424 1.186.762l15.22 14.43a9.417 9.417 0 012.878 6.785 9.417 9.417 0 01-2.877 6.785L87.914 81.98v20.436c0 1.799.711 3.525 1.978 4.798a6.74 6.74 0 004.775 1.987h13.507a6.737 6.737 0 004.775-1.987 6.802 6.802 0 001.978-4.798v-27.14a6.74 6.74 0 004.776-1.987 6.803 6.803 0 001.978-4.798V48.135c0-3.599-1.423-7.05-3.956-9.596a13.476 13.476 0 00-9.551-3.974zM93.907 63.261l-15.22-14.43a2.529 2.529 0 00-2.748-.496 2.536 2.536 0 00-1.117.94 2.553 2.553 0 00-.415 1.404v7.633H47.393V50.68a2.553 2.553 0 00-.414-1.404 2.523 2.523 0 00-3.865-.447L27.892 63.261a2.635 2.635 0 000 3.705l15.22 14.432a2.528 2.528 0 003.867-.447c.272-.418.416-.907.413-1.406v-7.663h27.014v7.663c-.002.5.142.988.414 1.406a2.522 2.522 0 003.866.448l15.22-14.433a2.635 2.635 0 000-3.705z" fill="#000" fill-opacity=".5"/></g><defs><clipPath id="dclip0"><path fill="#fff" d="M.12.64h121.561V109.2H.12z"/></clipPath></defs></svg><svg fill="none" viewBox="0 0 140 140" id="card-2" xmlns="http://www.w3.org/2000/svg"><path d="M112.228 84.685L90.451 74.307l-9.208-4.388c4.021-2.531 7.288-6.438 9.425-11.143a30.178 30.178 0 002.705-12.489c0-2.538-.404-4.948-.965-7.274-2.74-11.269-11.55-19.57-22.124-19.57-10.376 0-19.052 8.005-21.96 18.954-.672 2.511-1.134 5.123-1.134 7.89 0 4.805 1.124 9.286 3.033 13.182 2.207 4.52 5.479 8.248 9.461 10.644l-8.819 4.103-22.483 10.46c-1.952.915-3.236 3.115-3.236 5.572v24.68c0 3.307 2.307 5.988 5.155 5.988h33.392v-18.895c.005-.195.062-.385.166-.551l-.014-.008 5.47-9.463.013.008c.195-.333.541-.57.956-.57.414 0 .76.235.955.57l.005-.004.05.088c.007.013.017.025.023.038l5.397 9.337-.007.004c.103.166.16.357.165.552v18.896h33.392c2.848 0 5.156-2.681 5.156-5.989v-24.68c.005-2.45-1.258-4.63-3.192-5.564zm-35.517-6.328l.014.008-5.47 9.464-.015-.009a1.106 1.106 0 01-.955.568 1.108 1.108 0 01-.956-.568l-.006.004-.056-.096c-.004-.01-.013-.018-.017-.027l-5.397-9.34.006-.004a1.087 1.087 0 01-.166-.552c0-.618.502-1.12 1.121-1.12h10.939c.618 0 1.12.502 1.12 1.12a1.057 1.057 0 01-.162.552z" fill="#000" fill-opacity=".5"/></svg><svg fill="none" viewBox="0 0 130 79" id="card-3" xmlns="http://www.w3.org/2000/svg"><path d="M88.174.76H70.869a6.448 6.448 0 00-4.351 1.69L46.715 20.563c-.02.02-.04.06-.06.08-3.345 3.14-3.284 8.151-.423 11.27 2.558 2.798 7.937 3.543 11.301.544.02-.02.06-.02.08-.04L73.71 17.685c1.31-1.187 3.365-1.107 4.553.201 1.209 1.309 1.108 3.341-.201 4.549l-5.258 4.81 29.331 23.787a14.585 14.585 0 011.592 1.55V13.64l-11-10.988A6.403 6.403 0 0088.174.76zm22.018 12.92v45.06a6.437 6.437 0 006.447 6.44h12.892v-51.5h-19.339zm9.67 45.06a3.23 3.23 0 01-3.223-3.22 3.23 3.23 0 013.223-3.22 3.23 3.23 0 013.223 3.22 3.23 3.23 0 01-3.223 3.22zM.603 65.16h12.893a6.436 6.436 0 006.446-6.44V13.68H.603v51.48zm9.67-12.86a3.231 3.231 0 013.223 3.22c0 1.771-1.45 3.22-3.223 3.22a3.231 3.231 0 01-3.224-3.22c0-1.791 1.45-3.22 3.224-3.22zm87.812 3.743L68.008 31.652l-6.043 5.534c-5.983 5.454-15.15 4.93-20.488-.885-5.419-5.917-4.996-15.074.887-20.467L58.842.76H41.961a6.438 6.438 0 00-4.553 1.892L26.388 13.64V58.7h3.687l18.232 16.482c5.52 4.488 13.638 3.643 18.13-1.871l.04-.04 3.606 3.119c3.203 2.616 7.938 2.113 10.536-1.087l6.326-7.768 1.088.885c2.76 2.234 6.829 1.832 9.065-.946l1.914-2.354a6.447 6.447 0 00-.927-9.077z" fill="#000" fill-opacity=".5"/></svg><svg fill="none" viewBox="0 0 119 95" id="card-4" xmlns="http://www.w3.org/2000/svg"><path d="M91.804 41.935c-14.659 0-26.522 11.805-26.522 26.392 0 14.588 11.863 26.393 26.522 26.393 14.659 0 26.523-11.805 26.523-26.392 0-14.588-11.864-26.393-26.523-26.393zm11.788 27.545a1.79 1.79 0 01-1.788 1.78H90.648a1.79 1.79 0 01-1.789-1.78V55.446c0-.978.805-1.78 1.789-1.78h2.315a1.79 1.79 0 011.788 1.78v9.949h7.053c.983 0 1.788.8 1.788 1.78v2.305zM91.804 36.07c.995 0 1.975.06 2.947.148v-8.946c0-4.691-4.126-8.797-8.84-8.797H71.175V9.677c0-4.691-4.126-8.797-8.841-8.797h-29.47c-4.714 0-8.84 4.106-8.84 8.797v8.798H9.29c-4.715 0-8.84 4.105-8.84 8.797v14.663h72.774c5.267-3.682 11.668-5.865 18.58-5.865zM59.388 18.475H35.813V12.61h23.575v5.865zm1.256 41.055H38.76a2.939 2.939 0 01-2.947-2.933V47.8H.449v26.392c0 4.693 4.126 8.798 8.841 8.798h53.677c-2.271-4.406-3.579-9.38-3.579-14.662 0-3.054.457-5.998 1.256-8.798z" fill="#000" fill-opacity=".5"/></svg><svg fill="none" viewBox="0 0 14 14" id="close" xmlns="http://www.w3.org/2000/svg"><path d="M14 1.41L12.59 0 7 5.59 1.41 0 0 1.41 5.59 7 0 12.59 1.41 14 7 8.41 12.59 14 14 12.59 8.41 7 14 1.41z" fill="#000"/></svg><svg fill="none" viewBox="0 0 178 161" id="dots" xmlns="http://www.w3.org/2000/svg"><ellipse cx="4.238" cy="4.237" rx="4.238" ry="4.237" fill="#ECC92F"/><ellipse cx="28.456" cy="4.237" rx="4.238" ry="4.237" fill="#ECC92F"/><ellipse cx="4.238" cy="26.026" rx="4.238" ry="4.237" fill="#ECC92F"/><ellipse cx="28.456" cy="26.026" rx="4.238" ry="4.237" fill="#ECC92F"/><ellipse cx="4.238" cy="47.816" rx="4.238" ry="4.237" fill="#ECC92F"/><ellipse cx="28.456" cy="47.816" rx="4.238" ry="4.237" fill="#ECC92F"/><ellipse cx="4.238" cy="69.605" rx="4.238" ry="4.237" fill="#ECC92F"/><ellipse cx="28.456" cy="69.605" rx="4.238" ry="4.237" fill="#ECC92F"/><ellipse cx="4.238" cy="91.395" rx="4.238" ry="4.237" fill="#ECC92F"/><ellipse cx="28.456" cy="91.395" rx="4.238" ry="4.237" fill="#ECC92F"/><ellipse cx="4.238" cy="113.184" rx="4.238" ry="4.237" fill="#ECC92F"/><ellipse cx="28.456" cy="113.184" rx="4.238" ry="4.237" fill="#ECC92F"/><ellipse cx="4.238" cy="134.974" rx="4.238" ry="4.237" fill="#ECC92F"/><ellipse cx="28.456" cy="134.974" rx="4.238" ry="4.237" fill="#ECC92F"/><ellipse cx="4.238" cy="156.763" rx="4.238" ry="4.237" fill="#ECC92F"/><ellipse cx="28.456" cy="156.763" rx="4.238" ry="4.237" fill="#ECC92F"/><ellipse cx="4.238" cy="4.237" rx="4.238" ry="4.237" fill="#ECC92F"/><ellipse cx="28.456" cy="4.237" rx="4.238" ry="4.237" fill="#ECC92F"/><ellipse cx="4.238" cy="26.026" rx="4.238" ry="4.237" fill="#ECC92F"/><ellipse cx="28.456" cy="26.026" rx="4.238" ry="4.237" fill="#ECC92F"/><ellipse cx="4.238" cy="47.816" rx="4.238" ry="4.237" fill="#ECC92F"/><ellipse cx="28.456" cy="47.816" rx="4.238" ry="4.237" fill="#ECC92F"/><ellipse cx="4.238" cy="69.605" rx="4.238" ry="4.237" fill="#ECC92F"/><ellipse cx="28.456" cy="69.605" rx="4.238" ry="4.237" fill="#ECC92F"/><ellipse cx="4.238" cy="91.395" rx="4.238" ry="4.237" fill="#ECC92F"/><ellipse cx="28.456" cy="91.395" rx="4.238" ry="4.237" fill="#ECC92F"/><ellipse cx="28.456" cy="113.184" rx="4.238" ry="4.237" fill="#ECC92F"/><ellipse cx="4.238" cy="134.974" rx="4.238" ry="4.237" fill="#ECC92F"/><ellipse cx="28.456" cy="134.974" rx="4.238" ry="4.237" fill="#ECC92F"/><ellipse cx="4.238" cy="156.763" rx="4.238" ry="4.237" fill="#ECC92F"/><ellipse cx="28.456" cy="156.763" rx="4.238" ry="4.237" fill="#ECC92F"/><ellipse cx="52.674" cy="4.237" rx="4.238" ry="4.237" fill="#ECC92F"/><ellipse cx="76.891" cy="4.237" rx="4.238" ry="4.237" fill="#ECC92F"/><ellipse cx="52.674" cy="26.026" rx="4.238" ry="4.237" fill="#ECC92F"/><ellipse cx="76.891" cy="26.026" rx="4.238" ry="4.237" fill="#ECC92F"/><ellipse cx="52.674" cy="47.816" rx="4.238" ry="4.237" fill="#ECC92F"/><ellipse cx="76.891" cy="47.816" rx="4.238" ry="4.237" fill="#ECC92F"/><ellipse cx="52.674" cy="69.605" rx="4.238" ry="4.237" fill="#ECC92F"/><ellipse cx="76.891" cy="69.605" rx="4.238" ry="4.237" fill="#ECC92F"/><ellipse cx="52.674" cy="91.395" rx="4.238" ry="4.237" fill="#ECC92F"/><ellipse cx="76.891" cy="91.395" rx="4.238" ry="4.237" fill="#ECC92F"/><ellipse cx="52.674" cy="113.184" rx="4.238" ry="4.237" fill="#ECC92F"/><ellipse cx="76.891" cy="113.184" rx="4.238" ry="4.237" fill="#ECC92F"/><ellipse cx="52.674" cy="134.974" rx="4.238" ry="4.237" fill="#ECC92F"/><ellipse cx="76.891" cy="134.974" rx="4.238" ry="4.237" fill="#ECC92F"/><ellipse cx="52.674" cy="156.763" rx="4.238" ry="4.237" fill="#ECC92F"/><ellipse cx="76.891" cy="156.763" rx="4.238" ry="4.237" fill="#ECC92F"/><ellipse cx="52.674" cy="4.237" rx="4.238" ry="4.237" fill="#ECC92F"/><ellipse cx="76.891" cy="4.237" rx="4.238" ry="4.237" fill="#ECC92F"/><ellipse cx="52.674" cy="26.026" rx="4.238" ry="4.237" fill="#ECC92F"/><ellipse cx="76.891" cy="26.026" rx="4.238" ry="4.237" fill="#ECC92F"/><ellipse cx="52.674" cy="47.816" rx="4.238" ry="4.237" fill="#ECC92F"/><ellipse cx="76.891" cy="47.816" rx="4.238" ry="4.237" fill="#ECC92F"/><ellipse cx="52.674" cy="69.605" rx="4.238" ry="4.237" fill="#ECC92F"/><ellipse cx="76.891" cy="69.605" rx="4.238" ry="4.237" fill="#ECC92F"/><ellipse cx="52.674" cy="91.395" rx="4.238" ry="4.237" fill="#ECC92F"/><ellipse cx="76.891" cy="91.395" rx="4.238" ry="4.237" fill="#ECC92F"/><ellipse cx="76.891" cy="113.184" rx="4.238" ry="4.237" fill="#ECC92F"/><ellipse cx="52.674" cy="134.974" rx="4.238" ry="4.237" fill="#ECC92F"/><ellipse cx="76.891" cy="134.974" rx="4.238" ry="4.237" fill="#ECC92F"/><ellipse cx="52.674" cy="156.763" rx="4.238" ry="4.237" fill="#ECC92F"/><ellipse cx="76.891" cy="156.763" rx="4.238" ry="4.237" fill="#ECC92F"/><ellipse cx="101.109" cy="4.237" rx="4.238" ry="4.237" fill="#ECC92F"/><ellipse cx="125.326" cy="4.237" rx="4.238" ry="4.237" fill="#ECC92F"/><ellipse cx="101.109" cy="26.026" rx="4.238" ry="4.237" fill="#ECC92F"/><ellipse cx="125.326" cy="26.026" rx="4.238" ry="4.237" fill="#ECC92F"/><ellipse cx="101.109" cy="47.816" rx="4.238" ry="4.237" fill="#ECC92F"/><ellipse cx="125.326" cy="47.816" rx="4.238" ry="4.237" fill="#ECC92F"/><ellipse cx="101.109" cy="69.605" rx="4.238" ry="4.237" fill="#ECC92F"/><ellipse cx="125.326" cy="69.605" rx="4.238" ry="4.237" fill="#ECC92F"/><ellipse cx="101.109" cy="91.395" rx="4.238" ry="4.237" fill="#ECC92F"/><ellipse cx="125.326" cy="91.395" rx="4.238" ry="4.237" fill="#ECC92F"/><ellipse cx="101.109" cy="113.184" rx="4.238" ry="4.237" fill="#ECC92F"/><ellipse cx="125.326" cy="113.184" rx="4.238" ry="4.237" fill="#ECC92F"/><ellipse cx="101.109" cy="134.974" rx="4.238" ry="4.237" fill="#ECC92F"/><ellipse cx="125.326" cy="134.974" rx="4.238" ry="4.237" fill="#ECC92F"/><ellipse cx="101.109" cy="156.763" rx="4.238" ry="4.237" fill="#ECC92F"/><ellipse cx="125.326" cy="156.763" rx="4.238" ry="4.237" fill="#ECC92F"/><ellipse cx="101.109" cy="4.237" rx="4.238" ry="4.237" fill="#ECC92F"/><ellipse cx="125.326" cy="4.237" rx="4.238" ry="4.237" fill="#ECC92F"/><ellipse cx="101.109" cy="26.026" rx="4.238" ry="4.237" fill="#ECC92F"/><ellipse cx="125.326" cy="26.026" rx="4.238" ry="4.237" fill="#ECC92F"/><ellipse cx="101.109" cy="47.816" rx="4.238" ry="4.237" fill="#ECC92F"/><ellipse cx="125.326" cy="47.816" rx="4.238" ry="4.237" fill="#ECC92F"/><ellipse cx="101.109" cy="69.605" rx="4.238" ry="4.237" fill="#ECC92F"/><ellipse cx="125.326" cy="69.605" rx="4.238" ry="4.237" fill="#ECC92F"/><ellipse cx="101.109" cy="91.395" rx="4.238" ry="4.237" fill="#ECC92F"/><ellipse cx="125.326" cy="91.395" rx="4.238" ry="4.237" fill="#ECC92F"/><ellipse cx="125.326" cy="113.184" rx="4.238" ry="4.237" fill="#ECC92F"/><ellipse cx="101.109" cy="134.974" rx="4.238" ry="4.237" fill="#ECC92F"/><ellipse cx="125.326" cy="134.974" rx="4.238" ry="4.237" fill="#ECC92F"/><ellipse cx="101.109" cy="156.763" rx="4.238" ry="4.237" fill="#ECC92F"/><ellipse cx="125.326" cy="156.763" rx="4.238" ry="4.237" fill="#ECC92F"/><ellipse cx="149.544" cy="4.237" rx="4.238" ry="4.237" fill="#ECC92F"/><ellipse cx="173.762" cy="4.237" rx="4.238" ry="4.237" fill="#ECC92F"/><ellipse cx="149.544" cy="26.026" rx="4.238" ry="4.237" fill="#ECC92F"/><ellipse cx="173.762" cy="26.026" rx="4.238" ry="4.237" fill="#ECC92F"/><ellipse cx="149.544" cy="47.816" rx="4.238" ry="4.237" fill="#ECC92F"/><ellipse cx="173.762" cy="47.816" rx="4.238" ry="4.237" fill="#ECC92F"/><ellipse cx="149.544" cy="69.605" rx="4.238" ry="4.237" fill="#ECC92F"/><ellipse cx="173.762" cy="69.605" rx="4.238" ry="4.237" fill="#ECC92F"/><ellipse cx="149.544" cy="91.395" rx="4.238" ry="4.237" fill="#ECC92F"/><ellipse cx="173.762" cy="91.395" rx="4.238" ry="4.237" fill="#ECC92F"/><ellipse cx="149.544" cy="113.184" rx="4.238" ry="4.237" fill="#ECC92F"/><ellipse cx="173.762" cy="113.184" rx="4.238" ry="4.237" fill="#ECC92F"/><ellipse cx="149.544" cy="134.974" rx="4.238" ry="4.237" fill="#ECC92F"/><ellipse cx="173.762" cy="134.974" rx="4.238" ry="4.237" fill="#ECC92F"/><ellipse cx="149.544" cy="156.763" rx="4.238" ry="4.237" fill="#ECC92F"/><ellipse cx="173.762" cy="156.763" rx="4.238" ry="4.237" fill="#ECC92F"/><ellipse cx="149.544" cy="4.237" rx="4.238" ry="4.237" fill="#ECC92F"/><ellipse cx="173.762" cy="4.237" rx="4.238" ry="4.237" fill="#ECC92F"/><ellipse cx="149.544" cy="26.026" rx="4.238" ry="4.237" fill="#ECC92F"/><ellipse cx="173.762" cy="26.026" rx="4.238" ry="4.237" fill="#ECC92F"/><ellipse cx="149.544" cy="47.816" rx="4.238" ry="4.237" fill="#ECC92F"/><ellipse cx="173.762" cy="47.816" rx="4.238" ry="4.237" fill="#ECC92F"/><ellipse cx="149.544" cy="69.605" rx="4.238" ry="4.237" fill="#ECC92F"/><ellipse cx="173.762" cy="69.605" rx="4.238" ry="4.237" fill="#ECC92F"/><ellipse cx="149.544" cy="91.395" rx="4.238" ry="4.237" fill="#ECC92F"/><ellipse cx="173.762" cy="91.395" rx="4.238" ry="4.237" fill="#ECC92F"/><ellipse cx="173.762" cy="113.184" rx="4.238" ry="4.237" fill="#ECC92F"/><ellipse cx="149.544" cy="134.974" rx="4.238" ry="4.237" fill="#ECC92F"/><ellipse cx="173.762" cy="134.974" rx="4.238" ry="4.237" fill="#ECC92F"/><ellipse cx="149.544" cy="156.763" rx="4.238" ry="4.237" fill="#ECC92F"/><ellipse cx="173.762" cy="156.763" rx="4.238" ry="4.237" fill="#ECC92F"/></svg><svg fill="none" viewBox="0 0 60 54" id="dots-mob" xmlns="http://www.w3.org/2000/svg"><circle cx="2" cy="2" r="2" fill="#ECC92F"/><circle cx="10" cy="2" r="2" fill="#ECC92F"/><circle cx="2" cy="9" r="2" fill="#ECC92F"/><circle cx="10" cy="9" r="2" fill="#ECC92F"/><circle cx="2" cy="16" r="2" fill="#ECC92F"/><circle cx="10" cy="16" r="2" fill="#ECC92F"/><circle cx="2" cy="23" r="2" fill="#ECC92F"/><circle cx="10" cy="23" r="2" fill="#ECC92F"/><circle cx="18" cy="16" r="2" fill="#ECC92F"/><circle cx="26" cy="16" r="2" fill="#ECC92F"/><circle cx="18" cy="23" r="2" fill="#ECC92F"/><circle cx="26" cy="23" r="2" fill="#ECC92F"/><circle cx="18" cy="2" r="2" fill="#ECC92F"/><circle cx="26" cy="2" r="2" fill="#ECC92F"/><circle cx="18" cy="9" r="2" fill="#ECC92F"/><circle cx="26" cy="9" r="2" fill="#ECC92F"/><circle cx="2" cy="2" r="2" fill="#ECC92F"/><circle cx="10" cy="2" r="2" fill="#ECC92F"/><circle cx="2" cy="9" r="2" fill="#ECC92F"/><circle cx="10" cy="9" r="2" fill="#ECC92F"/><circle cx="2" cy="16" r="2" fill="#ECC92F"/><circle cx="10" cy="16" r="2" fill="#ECC92F"/><circle cx="2" cy="23" r="2" fill="#ECC92F"/><circle cx="10" cy="23" r="2" fill="#ECC92F"/><circle cx="18" cy="16" r="2" fill="#ECC92F"/><circle cx="26" cy="16" r="2" fill="#ECC92F"/><circle cx="18" cy="23" r="2" fill="#ECC92F"/><circle cx="26" cy="23" r="2" fill="#ECC92F"/><circle cx="18" cy="2" r="2" fill="#ECC92F"/><circle cx="26" cy="2" r="2" fill="#ECC92F"/><circle cx="18" cy="9" r="2" fill="#ECC92F"/><circle cx="26" cy="9" r="2" fill="#ECC92F"/><circle cx="34" cy="2" r="2" fill="#ECC92F"/><circle cx="42" cy="2" r="2" fill="#ECC92F"/><circle cx="34" cy="9" r="2" fill="#ECC92F"/><circle cx="42" cy="9" r="2" fill="#ECC92F"/><circle cx="34" cy="16" r="2" fill="#ECC92F"/><circle cx="42" cy="16" r="2" fill="#ECC92F"/><circle cx="34" cy="23" r="2" fill="#ECC92F"/><circle cx="42" cy="23" r="2" fill="#ECC92F"/><circle cx="50" cy="16" r="2" fill="#ECC92F"/><circle cx="58" cy="16" r="2" fill="#ECC92F"/><circle cx="50" cy="23" r="2" fill="#ECC92F"/><circle cx="58" cy="23" r="2" fill="#ECC92F"/><circle cx="50" cy="2" r="2" fill="#ECC92F"/><circle cx="58" cy="2" r="2" fill="#ECC92F"/><circle cx="50" cy="9" r="2" fill="#ECC92F"/><circle cx="58" cy="9" r="2" fill="#ECC92F"/><circle cx="34" cy="2" r="2" fill="#ECC92F"/><circle cx="42" cy="2" r="2" fill="#ECC92F"/><circle cx="34" cy="9" r="2" fill="#ECC92F"/><circle cx="42" cy="9" r="2" fill="#ECC92F"/><circle cx="34" cy="16" r="2" fill="#ECC92F"/><circle cx="42" cy="16" r="2" fill="#ECC92F"/><circle cx="34" cy="23" r="2" fill="#ECC92F"/><circle cx="42" cy="23" r="2" fill="#ECC92F"/><circle cx="50" cy="16" r="2" fill="#ECC92F"/><circle cx="58" cy="16" r="2" fill="#ECC92F"/><circle cx="50" cy="23" r="2" fill="#ECC92F"/><circle cx="58" cy="23" r="2" fill="#ECC92F"/><circle cx="50" cy="2" r="2" fill="#ECC92F"/><circle cx="58" cy="2" r="2" fill="#ECC92F"/><circle cx="50" cy="9" r="2" fill="#ECC92F"/><circle cx="58" cy="9" r="2" fill="#ECC92F"/><circle cx="34" cy="31" r="2" fill="#ECC92F"/><circle cx="42" cy="31" r="2" fill="#ECC92F"/><circle cx="34" cy="38" r="2" fill="#ECC92F"/><circle cx="42" cy="38" r="2" fill="#ECC92F"/><circle cx="34" cy="45" r="2" fill="#ECC92F"/><circle cx="42" cy="45" r="2" fill="#ECC92F"/><circle cx="34" cy="52" r="2" fill="#ECC92F"/><circle cx="42" cy="52" r="2" fill="#ECC92F"/><circle cx="50" cy="45" r="2" fill="#ECC92F"/><circle cx="58" cy="45" r="2" fill="#ECC92F"/><circle cx="50" cy="52" r="2" fill="#ECC92F"/><circle cx="58" cy="52" r="2" fill="#ECC92F"/><circle cx="50" cy="31" r="2" fill="#ECC92F"/><circle cx="58" cy="31" r="2" fill="#ECC92F"/><circle cx="50" cy="38" r="2" fill="#ECC92F"/><circle cx="58" cy="38" r="2" fill="#ECC92F"/><circle cx="34" cy="31" r="2" fill="#ECC92F"/><circle cx="42" cy="31" r="2" fill="#ECC92F"/><circle cx="34" cy="38" r="2" fill="#ECC92F"/><circle cx="42" cy="38" r="2" fill="#ECC92F"/><circle cx="34" cy="45" r="2" fill="#ECC92F"/><circle cx="42" cy="45" r="2" fill="#ECC92F"/><circle cx="34" cy="52" r="2" fill="#ECC92F"/><circle cx="42" cy="52" r="2" fill="#ECC92F"/><circle cx="50" cy="45" r="2" fill="#ECC92F"/><circle cx="58" cy="45" r="2" fill="#ECC92F"/><circle cx="50" cy="52" r="2" fill="#ECC92F"/><circle cx="58" cy="52" r="2" fill="#ECC92F"/><circle cx="50" cy="31" r="2" fill="#ECC92F"/><circle cx="58" cy="31" r="2" fill="#ECC92F"/><circle cx="50" cy="38" r="2" fill="#ECC92F"/><circle cx="58" cy="38" r="2" fill="#ECC92F"/><circle cx="2" cy="30" r="2" fill="#ECC92F"/><circle cx="10" cy="30" r="2" fill="#ECC92F"/><circle cx="2" cy="37" r="2" fill="#ECC92F"/><circle cx="10" cy="37" r="2" fill="#ECC92F"/><circle cx="2" cy="44" r="2" fill="#ECC92F"/><circle cx="10" cy="44" r="2" fill="#ECC92F"/><circle cx="2" cy="51" r="2" fill="#ECC92F"/><circle cx="10" cy="51" r="2" fill="#ECC92F"/><circle cx="18" cy="44" r="2" fill="#ECC92F"/><circle cx="26" cy="44" r="2" fill="#ECC92F"/><circle cx="18" cy="51" r="2" fill="#ECC92F"/><circle cx="26" cy="51" r="2" fill="#ECC92F"/><circle cx="18" cy="30" r="2" fill="#ECC92F"/><circle cx="26" cy="30" r="2" fill="#ECC92F"/><circle cx="18" cy="37" r="2" fill="#ECC92F"/><circle cx="26" cy="37" r="2" fill="#ECC92F"/><circle cx="2" cy="30" r="2" fill="#ECC92F"/><circle cx="10" cy="30" r="2" fill="#ECC92F"/><circle cx="2" cy="37" r="2" fill="#ECC92F"/><circle cx="10" cy="37" r="2" fill="#ECC92F"/><circle cx="2" cy="44" r="2" fill="#ECC92F"/><circle cx="10" cy="44" r="2" fill="#ECC92F"/><circle cx="2" cy="51" r="2" fill="#ECC92F"/><circle cx="10" cy="51" r="2" fill="#ECC92F"/><circle cx="18" cy="44" r="2" fill="#ECC92F"/><circle cx="26" cy="44" r="2" fill="#ECC92F"/><circle cx="18" cy="51" r="2" fill="#ECC92F"/><circle cx="26" cy="51" r="2" fill="#ECC92F"/><circle cx="18" cy="30" r="2" fill="#ECC92F"/><circle cx="26" cy="30" r="2" fill="#ECC92F"/><circle cx="18" cy="37" r="2" fill="#ECC92F"/><circle cx="26" cy="37" r="2" fill="#ECC92F"/></svg><svg fill="none" viewBox="0 0 18 18" id="mail" xmlns="http://www.w3.org/2000/svg"><path d="M14 5.5H4c-.688 0-1.244.563-1.244 1.25l-.006 7.5c0 .688.563 1.25 1.25 1.25h10c.688 0 1.25-.563 1.25-1.25v-7.5c0-.688-.563-1.25-1.25-1.25zm0 8.75H4V8l5 3.125L14 8v6.25zM9 9.875L4 6.75h10L9 9.875z" fill="#000" fill-opacity=".5"/></svg><svg fill="none" viewBox="0 0 18 18" id="person" xmlns="http://www.w3.org/2000/svg"><path d="M9 4.425a1.575 1.575 0 110 3.15 1.575 1.575 0 010-3.15zm0 6.75c2.227 0 4.575 1.095 4.575 1.575v.825h-9.15v-.825c0-.48 2.348-1.575 4.575-1.575zM9 3a3 3 0 100 6 3 3 0 100-6zm0 6.75c-2.003 0-6 1.005-6 3V15h12v-2.25c0-1.995-3.998-3-6-3z" fill="#000" fill-opacity=".5"/></svg><svg fill="none" viewBox="0 0 18 18" id="phone" xmlns="http://www.w3.org/2000/svg"><path d="M4.965 8.092a11.362 11.362 0 004.943 4.943l1.65-1.65a.746.746 0 01.764-.18c.84.277 1.748.427 2.678.427.412 0 .75.338.75.75V15c0 .412-.338.75-.75.75C7.957 15.75 2.25 10.042 2.25 3c0-.413.337-.75.75-.75h2.625c.412 0 .75.337.75.75 0 .937.15 1.837.428 2.677a.753.753 0 01-.188.765l-1.65 1.65zM15.12 2.767l-.532-.525L9.75 6.967V3.75H9v4.5h4.5V7.5h-3.113l4.733-4.733z" fill="#000" fill-opacity=".5"/></svg></svg>